HIERARCHY
ROOT hip
{
	OFFSET 0.000000 0.000000 0.000000 
	CHANNELS 6 Xposition Yposition Zposition Xrotation Zrotation Yrotation
	JOINT abdomen
	{
		OFFSET 0.000000 3.402643 0.000000 
		CHANNELS 3 Xrotation Zrotation Yrotation
		JOINT chest
		{
			OFFSET 0.000000 8.438565 -0.680529 
			CHANNELS 3 Xrotation Zrotation Yrotation
			JOINT neck
			{
				OFFSET 0.000000 10.207942 -0.272212 
				CHANNELS 3 Xrotation Zrotation Yrotation
				JOINT head
				{
					OFFSET 0.000000 3.130431 0.000000 
					CHANNELS 3 Xrotation Zrotation Yrotation
					End Site
					{
						OFFSET 0.000000 3.130435 0.000000 
					}
				}
			}
			JOINT lCollar
			{
				OFFSET 3.470700 6.669187 -0.816635 
				CHANNELS 3 Yrotation Zrotation Xrotation
				JOINT lShldr
				{
					OFFSET 3.198488 0.000000 0.000000 
					CHANNELS 3 Zrotation Yrotation Xrotation
					JOINT lForeArm
					{
						OFFSET 10.139888 0.000000 0.000000 
						CHANNELS 3 Yrotation Zrotation Xrotation
						JOINT lHand
						{
							OFFSET 8.370511 0.000000 0.000000 
							CHANNELS 3 Zrotation Yrotation Xrotation
							End Site
							{
								OFFSET 4.083176 0.000000 0.000000 
							}
						}
					}
				}
			}
			JOINT rCollar
			{
				OFFSET -3.470700 6.669187 -0.816635 
				CHANNELS 3 Yrotation Zrotation Xrotation
				JOINT rShldr
				{
					OFFSET -3.198488 0.000000 0.000000 
					CHANNELS 3 Zrotation Yrotation Xrotation
					JOINT rForeArm
					{
						OFFSET -10.139888 0.000000 0.000000 
						CHANNELS 3 Yrotation Zrotation Xrotation
						JOINT rHand
						{
							OFFSET -8.370511 0.000000 0.000000 
							CHANNELS 3 Zrotation Yrotation Xrotation
							End Site
							{
								OFFSET -4.083176 0.000000 0.000000 
							}
						}
					}
				}
			}
		}
	}
	JOINT lThigh
	{
		OFFSET 5.308129 -1.633274 1.361059 
		CHANNELS 3 Xrotation Zrotation Yrotation
		JOINT lShin
		{
			OFFSET -2.041588 -20.007561 0.000000 
			CHANNELS 3 Xrotation Zrotation Yrotation
			JOINT lFoot
			{
				OFFSET 0.000000 -19.190928 -1.224953 
				CHANNELS 3 Xrotation Yrotation Zrotation
				End Site
				{
					OFFSET 0.000000 -2.449906 4.627600 
				}
			}
		}
	}
	JOINT rThigh
	{
		OFFSET -5.308129 -1.633274 1.361059 
		CHANNELS 3 Xrotation Zrotation Yrotation
		JOINT rShin
		{
			OFFSET 2.041588 -20.007561 0.000000 
			CHANNELS 3 Xrotation Zrotation Yrotation
			JOINT rFoot
			{
				OFFSET 0.000000 -19.190928 -1.224953 
				CHANNELS 3 Xrotation Yrotation Zrotation
				End Site
				{
					OFFSET 0.000000 -2.449906 4.627600 
				}
			}
		}
	}
}
MOTION
Frames: 19
Frame Time: 0.016667
-4.854702 13.223897 -7.074998 64.426369 12.251837 25.023216 32.033726 -7.530042 -9.597535 1.679388 3.098506 -8.914958 -19.746134 11.111248 -4.000097 -8.655205 -5.871048 7.244945 -31.489733 22.378105 1.219184 -8.692402 -13.139140 -10.941328 -129.104721 5.000000 29.353479 -44.291782 -7.051231 -45.000000 15.948823 -2.374420 0.134958 79.170128 42.385880 45.000000 115.963661 5.000000 -2.005871 13.048011 -30.000000 31.383402 -5.520113 28.921143 34.602356 91.354401 0.326542 -5.078942 13.767673 -23.148273 -24.589836 31.531067 -16.082090 -0.301334 21.485384 9.975333 4.692887 16.892092 -13.349226 15.684349 
-4.581297 13.256258 -6.421844 64.475273 11.803931 24.056810 31.558674 -6.417726 -8.806411 1.618548 3.524153 -9.269450 -19.484020 11.054759 -3.919897 -9.446918 -6.496126 8.767267 -31.729530 21.754076 1.183297 -9.016358 -14.051442 -11.477630 -126.243668 5.000000 27.142128 -44.760605 -6.861388 -45.000000 16.512381 -0.446087 0.025392 77.438072 41.853870 45.000000 118.115608 4.463467 -1.467182 19.702477 -30.000000 19.999725 -3.801163 28.160599 35.353962 87.825287 0.004627 -3.806872 13.948913 -24.516510 -24.556234 31.080544 -16.110512 -1.749619 22.455540 9.675349 4.588371 15.750128 -13.140334 15.386399 
-4.286811 13.291700 -5.772902 64.535667 11.197204 22.912397 31.071131 -5.100665 -8.004701 1.564112 3.998502 -9.546306 -19.160843 10.959708 -3.833859 -10.094747 -7.138032 10.393091 -31.935602 21.354298 1.159062 -10.574828 -14.843478 -11.636455 -123.481804 5.000000 25.237471 -45.455341 -7.394499 -45.000000 16.981985 1.445920 -0.072397 75.664116 41.461651 45.000000 120.334793 2.707134 -0.597843 23.654388 -30.000000 11.215179 -2.014809 27.436987 36.098137 84.005814 -0.248333 -3.148572 13.987902 -25.121849 -25.067688 30.553175 -16.257151 -3.232773 23.311779 9.140445 4.529062 14.914449 -13.143106 15.072489 
-3.972468 13.331611 -5.128956 64.611961 10.424444 21.585892 30.567368 -3.591214 -7.211353 1.515915 4.531398 -9.756124 -18.771889 10.840377 -3.713200 -10.618151 -7.812273 12.125554 -32.127548 21.198292 1.147469 -13.365205 -15.509417 -11.412421 -120.762131 5.000000 23.544205 -46.448040 -8.616744 -45.000000 17.357079 3.308666 -0.169159 73.858376 41.212929 45.000000 122.671944 0.680800 0.632995 24.272545 -30.000000 5.402725 -0.226251 26.736517 36.811649 79.898262 -0.491537 -3.091193 13.973863 -24.990248 -26.105238 29.911079 -16.513575 -4.742367 24.024498 8.794035 4.461415 14.512544 -13.329357 14.649890 
-3.621519 13.365003 -4.484262 64.749123 9.709980 20.185402 30.073692 -2.103537 -6.437038 1.458286 5.044666 -9.966499 -18.369385 10.683984 -3.577243 -11.154472 -8.470344 13.864833 -32.308716 20.993526 1.136908 -16.476267 -16.051817 -10.991570 -118.205345 5.000000 21.856516 -44.545174 -1.839952 -45.000000 17.744913 5.132392 -0.264352 72.025673 40.948727 45.000000 125.089821 -1.231094 2.016535 24.386023 -30.000000 0.078823 1.578716 25.875811 37.491371 75.693512 -0.705420 -2.964333 13.852525 -24.824341 -27.054104 29.230246 -16.890678 -6.349719 24.810118 8.429423 4.461664 13.967018 -13.568221 14.272232 
-3.218779 13.390145 -3.835948 65.135658 9.228242 18.410894 29.508467 -0.756238 -5.740264 1.343754 5.460939 -10.098448 -17.871870 10.360178 -3.373527 -11.693259 -9.092800 15.580938 -32.398186 20.603497 1.113317 -21.289106 -15.902763 -9.685432 -117.368851 5.000000 21.270208 -7.357656 21.042135 -45.000000 18.182993 6.692789 -0.345107 70.083076 40.549702 45.000000 127.742935 -2.901619 3.517981 21.178822 -30.000000 -2.136693 3.504492 24.276592 38.109024 70.749405 -0.880077 -2.674733 13.438341 -24.746469 -27.542202 28.241987 -17.812487 -8.182789 25.887949 7.936812 4.356489 12.620834 -13.933396 14.052689 
-2.777735 13.402711 -3.186745 65.587143 8.814468 16.559822 28.936295 0.569968 -5.061384 1.220710 5.847854 -10.229732 -17.374844 10.007257 -3.165543 -12.260033 -9.696600 17.295025 -32.477283 20.174461 1.087786 -26.390202 -15.521129 -8.262897 -116.867050 5.000000 20.897842 5.675248 -10.892755 -15.090012 18.623127 8.223915 -0.426893 68.130623 40.118374 45.000000 130.455978 -4.410972 5.145940 17.429411 -30.000000 -3.891647 5.442158 22.513985 38.654125 65.688744 -1.035272 -2.324281 12.912151 -24.607574 -27.972437 27.206535 -18.867731 -10.080347 27.008005 7.426072 4.224152 11.216424 -14.306388 13.866876 
-2.330013 13.395058 -2.539871 66.048012 8.400224 14.485886 28.487757 1.914861 -4.226424 1.168792 6.199186 -9.950547 -17.183784 9.419664 -2.940064 -12.926118 -10.406075 18.766056 -31.248402 19.580036 1.034274 -30.303757 -15.275542 -7.246878 -118.240204 5.000000 21.977749 -13.933204 -18.412674 23.879953 18.761265 9.410554 -0.499187 66.218231 39.614101 45.000000 133.409042 -5.000000 7.095446 14.886322 -30.000000 -8.243796 7.347571 20.493776 38.649559 60.011627 -1.102355 -1.923501 12.806851 -24.982702 -27.758049 26.087482 -20.094742 -12.145559 28.167662 7.075429 4.181086 9.077968 -14.592597 13.245623 
-1.873108 13.371345 -1.894562 66.534210 8.002057 12.172297 28.168266 3.298191 -3.233862 1.201156 6.505241 -9.278239 -17.321880 8.595816 -2.708603 -13.688523 -11.224384 19.986629 -28.721334 18.823404 0.983324 -33.065250 -15.217556 -6.609566 -121.448662 5.000000 24.473972 -13.594760 -17.861309 24.418921 18.603296 10.278528 -0.544105 64.376770 39.007637 45.000000 136.611023 -5.000000 9.417624 13.512518 -30.000000 -15.168939 9.261659 18.238667 38.113083 53.766506 -1.091390 -1.519356 13.151780 -25.863157 -26.877644 24.881277 -21.513262 -14.361374 29.370403 6.919153 4.259650 6.301970 -14.682654 12.229968 
-1.396765 13.303418 -1.254000 66.994843 7.573524 9.853354 27.899637 4.735192 -2.179463 1.225023 6.754161 -8.466600 -17.432129 7.755429 -2.457087 -14.380717 -11.966673 21.023508 -26.375919 18.018404 0.943673 -35.588608 -15.199552 -6.005674 -124.345879 5.000000 26.660999 -13.323950 -17.366816 25.138296 18.376886 11.068490 -0.586756 62.524139 38.267956 45.000000 139.800095 -5.000000 11.815072 11.637871 -30.000000 -21.332630 11.119524 16.024399 36.945549 47.529755 -1.089921 -1.160167 13.436474 -26.421515 -25.953659 23.764877 -22.878805 -16.586504 30.484674 6.772521 4.328794 3.490926 -14.832237 11.230493 
-0.894045 13.183843 -0.614541 67.208321 6.883824 7.545953 27.811237 6.446249 -0.688317 1.254233 6.657710 -6.925452 -17.393158 6.824265 -2.151872 -14.587276 -12.305511 21.031128 -24.997187 16.910456 0.871877 -36.913006 -15.538957 -5.511649 -125.951233 5.000000 27.467068 -13.442337 -17.156153 26.879551 17.746077 11.439170 -0.607873 60.568943 36.850929 43.297546 142.734619 -5.000000 13.938640 6.957722 -30.000000 -23.146673 12.794141 14.020150 32.700848 41.190559 -1.528001 -1.297260 13.423300 -25.342293 -25.160946 22.858109 -23.787680 -18.843464 31.210382 6.692951 4.402007 0.542888 -15.402324 10.170783 
-0.377744 13.019854 0.016706 67.398903 6.156051 5.235720 27.807289 8.217425 0.899328 1.284469 6.491339 -5.256821 -17.330999 5.874948 -1.834825 -14.691081 -12.577741 20.844137 -23.790520 15.745525 0.817585 -38.023716 -15.937145 -5.033258 -127.305298 5.000000 27.983900 -13.644627 -16.997204 28.804386 17.046280 11.741599 -0.623560 58.707573 35.250408 40.857788 145.624954 -5.000000 16.051779 1.900903 -30.000000 -24.520508 14.557088 12.167302 27.904482 34.864761 -2.034666 -1.445408 13.335201 -23.893408 -24.335506 22.006285 -24.625555 -21.134611 31.864246 6.610808 4.486291 -2.428169 -16.048244 9.101605 
0.125028 12.805814 0.618049 67.561096 5.296549 2.776202 27.993479 9.935184 2.222084 1.349511 6.457868 -3.912568 -17.286224 5.131752 -1.591747 -14.937726 -12.570828 21.375168 -22.445440 15.078266 0.789284 -39.861458 -16.190920 -4.468866 -129.118042 5.000000 29.046124 -13.914965 -16.116348 29.341164 16.576019 11.783469 -0.616439 57.324146 34.015362 38.992874 147.839096 -5.000000 17.554745 -5.661119 -30.000000 -22.625315 15.929067 10.691438 21.635977 29.741669 -2.345399 -1.408909 12.185092 -22.330492 -23.348757 21.090744 -25.311367 -23.305071 32.536308 6.537401 4.535277 -4.818688 -16.533880 8.468637 
0.619289 12.544434 1.194407 67.708580 4.316386 0.176753 28.375118 11.604393 3.297269 1.458412 6.558785 -2.863507 -17.245024 4.604515 -1.420928 -15.312925 -12.264292 22.623865 -20.948792 14.902497 0.780131 -42.428780 -16.305204 -3.838195 -131.373611 5.000000 30.673571 -14.287632 -14.518976 28.498884 16.339304 11.568923 -0.605327 56.330578 33.176594 37.608482 149.371048 -5.000000 18.397896 -14.747270 -30.000000 -18.336672 16.944223 9.567771 13.910459 25.865419 -2.424709 -1.186768 9.784799 -20.663771 -22.156055 20.084602 -25.798801 -25.381496 33.203045 6.423318 4.600273 -6.603010 -17.009504 8.273321 
1.096478 12.267514 1.749821 67.905586 3.336857 -2.425725 28.788509 13.256455 4.392888 1.560111 6.658710 -1.824222 -17.216490 4.066080 -1.259254 -15.684493 -11.956477 23.858980 -19.452311 14.736480 0.768998 -44.990765 -16.388712 -3.199347 -133.581024 5.000000 32.263763 -14.697295 -12.930248 27.652641 16.102636 11.354378 -0.592285 55.380581 32.313065 36.254234 150.000000 -5.000000 19.233711 -22.673414 -30.000000 -15.329446 18.102209 8.583582 6.195302 21.971327 -2.492153 -0.998140 7.426473 -19.067770 -20.888607 19.102859 -26.333702 -27.444429 33.895969 6.330709 4.624713 -8.446078 -17.448673 8.061130 
1.536906 11.987970 2.287164 68.549080 2.506139 -5.913634 29.341608 14.348489 5.412658 1.326143 6.845344 -0.873111 -17.193195 3.322543 -1.017434 -15.906146 -11.876248 25.213245 -17.849697 14.115100 0.725319 -46.034523 -14.407103 -3.067837 -135.178223 5.000000 32.771622 -13.516996 -12.356499 28.047928 16.445478 11.273597 -0.599346 54.819408 31.547937 35.709541 150.000000 -5.000000 20.312485 -26.877897 -29.443941 -9.665389 17.763474 8.075650 -1.372465 20.807932 -3.203360 -1.316123 6.693106 -18.086966 -21.133017 16.799492 -26.783112 -27.639763 34.894039 6.106503 4.689392 -9.244378 -17.064676 7.781502 
1.965804 11.706955 2.800723 69.239250 1.705325 -9.398469 29.906319 15.440698 6.433519 1.097363 7.031250 0.088866 -17.174767 2.578902 -0.775747 -16.126696 -11.788621 26.568840 -16.252296 13.497481 0.702577 -47.059547 -12.425666 -2.970019 -136.733719 5.000000 33.207645 -12.329061 -11.797997 28.455538 16.796103 11.185772 -0.592885 54.275356 30.769442 35.172985 150.000000 -5.000000 21.406544 -30.296837 -24.989969 -4.605172 17.505951 7.517107 -8.942615 19.629343 -3.917527 -1.560895 5.992745 -17.127159 -21.368639 14.503524 -27.260193 -27.825302 35.905228 5.902174 4.736876 -10.053375 -16.627092 7.509576 
2.418656 11.432485 3.281298 69.848953 1.248731 -12.551759 30.560774 16.110834 7.293529 0.885627 7.060246 0.854013 -17.389574 2.040282 -0.614966 -16.389288 -11.486044 27.820127 -14.948153 13.068184 0.678138 -47.203873 -10.203062 -3.098128 -138.157455 5.000000 33.496655 -10.750029 -11.371548 28.156179 17.067696 11.010188 -0.583797 53.824993 29.978544 34.355400 150.000000 -5.000000 22.199062 -33.056969 -21.217909 1.985951 17.154583 6.823959 -15.646143 18.343330 -4.486596 -1.683194 5.719100 -15.827256 -21.799561 12.388037 -27.896412 -28.037746 37.153679 5.808012 4.887475 -10.776123 -15.903504 7.363895 
2.900720 11.153116 3.729127 70.348808 1.111118 -15.374002 31.292942 16.397840 7.948384 0.675659 6.932737 1.423591 -17.843470 1.690354 -0.512687 -16.703691 -10.969256 28.955685 -13.958886 12.824223 0.665522 -46.503895 -7.736527 -3.388401 -139.467285 5.000000 33.674419 -8.800012 -11.004642 27.164543 17.260101 10.727344 -0.569155 53.466938 29.162125 33.237484 150.000000 -5.000000 22.688917 -35.522892 -18.134506 10.285155 16.732368 5.981910 -21.483067 16.929991 -4.904711 -1.675006 5.810281 -14.195726 -22.385891 10.474718 -28.697897 -28.258636 38.667778 5.852845 5.146670 -11.418157 -14.891810 7.337139 
